<svg width="58" height="58" viewBox="0 0 58 58" fill="none" xmlns="http://www.w3.org/2000/svg">
<g id="Group 102">
<g id="Page 1">
<g id="Social icons">
<g id="Color">
<g id="Telegram">
<g id="Group 1948754580">
<path id="Oval" d="M29 58C45.0163 58 58 45.0163 58 29C58 12.9837 45.0163 0 29 0C12.9837 0 0 12.9837 0 29C0 45.0163 12.9837 58 29 58Z" fill="#191919"/>
<path id="Path-3" fill-rule="evenodd" clip-rule="evenodd" d="M14.8561 27.4709C22.1039 24.3661 26.9368 22.3193 29.355 21.3304C36.2594 18.5069 37.6941 18.0164 38.6292 18.0002C38.8349 17.9966 39.2947 18.0467 39.5926 18.2844C39.8441 18.485 39.9133 18.7561 39.9464 18.9464C39.9795 19.1366 40.0208 19.57 39.988 19.9087C39.6138 23.7739 37.9949 33.1538 37.1713 37.483C36.8228 39.3148 36.1365 39.929 35.4722 39.9891C34.0284 40.1197 32.9321 39.051 31.5337 38.1497C29.3455 36.7394 28.1094 35.8615 25.9854 34.4853C23.5307 32.8949 25.122 32.0208 26.5209 30.5922C26.887 30.2184 33.2483 24.5294 33.3714 24.0134C33.3868 23.9488 33.4011 23.7082 33.2557 23.5812C33.1103 23.4541 32.8958 23.4976 32.7409 23.5321C32.5215 23.5811 29.0259 25.8528 22.2541 30.3472C21.2618 31.0171 20.3631 31.3435 19.5579 31.3264C18.6702 31.3075 16.9626 30.8329 15.6932 30.4272C14.1362 29.9296 12.8988 29.6665 13.0065 28.8214C13.0627 28.3812 13.6792 27.931 14.8561 27.4709Z" fill="white"/>
</g>
</g>
</g>
</g>
</g>
</g>
</svg>
